<svg xmlns="http://www.w3.org/2000/svg" viewBox="0 0 256 256">
  <rect width="256" height="256" fill="#000000"/>
  <path d="M60 70 L60 186 L70 186 L70 133 L100 133 L100 186 L110 186 L110 70 L100 70 L100 123 L70 123 L70 70 Z" fill="#D4AF37"/>
  <path d="M146 70 L146 186 L156 186 L156 100 L176 186 L186 186 L186 70 L176 70 L176 156 L156 70 Z" fill="#D4AF37"/>
  <path d="M130 70 L130 186 L140 186 L140 100 L160 186 L170 186 L190 100 L190 186 L200 186 L200 70 L185 70 L165 155 L145 70 Z" fill="#D4AF37"/>
</svg>